<svg xmlns="http://www.w3.org/2000/svg" version="1.1" xmlns:xlink="http://www.w3.org/1999/xlink"
    xmlns:svgjs="http://svgjs.com/svgjs" width="512" height="512" x="0" y="0" viewBox="0 0 64 64"
    style="enable-background:new 0 0 512 512" xml:space="preserve" class="">
    <g>
        <linearGradient id="a" x1="32" x2="32" y1="68.944" y2="3.898" gradientUnits="userSpaceOnUse">
            <stop offset="0" stop-color="#006df0"></stop>
            <stop offset="1" stop-color="#00e7f0"></stop>
        </linearGradient>
        <linearGradient xlink:href="#a" id="b" x1="25" x2="25" y1="68.944" y2="3.898"></linearGradient>
        <linearGradient xlink:href="#a" id="c" x1="33" x2="33" y1="68.944" y2="3.898"></linearGradient>
        <linearGradient xlink:href="#a" id="d" x1="21" x2="21" y1="68.944" y2="3.898"></linearGradient>
        <linearGradient xlink:href="#a" id="e" x1="29" x2="29" y1="68.944" y2="3.898"></linearGradient>
        <linearGradient xlink:href="#a" id="f" x1="13" x2="13" y1="68.944" y2="3.898"></linearGradient>
        <linearGradient xlink:href="#a" id="g" x1="57" x2="57" y1="68.944" y2="3.898"></linearGradient>
        <linearGradient xlink:href="#a" id="h" x1="52.899" x2="52.899" y1="68.944" y2="3.897"
            gradientTransform="rotate(45 52.907 22.092)"></linearGradient>
        <linearGradient xlink:href="#a" id="i" x1="43" x2="43" y1="68.944" y2="3.898"></linearGradient>
        <linearGradient xlink:href="#a" id="j" x1="53.6" x2="53.6" y1="68.944" y2="3.898"
            gradientTransform="rotate(47.8 53.593 42.677)"></linearGradient>
        <path fill="url(#a)"
            d="M61 27h-5.926l4.193-4.193a1 1 0 0 0 0-1.414l-5.66-5.66a1.029 1.029 0 0 0-1.414 0L48 19.926V14a1 1 0 0 0-1-1h-7V7a5.006 5.006 0 0 0-5-5H7a5.006 5.006 0 0 0-5 5v50a5.006 5.006 0 0 0 5 5h28a5.006 5.006 0 0 0 5-5v-6h7a1 1 0 0 0 1-1v-5.926l4.193 4.193a1 1 0 0 0 1.414 0l5.66-5.66a1 1 0 0 0 0-1.414L55.074 37H61a1 1 0 0 0 1-1v-8a1 1 0 0 0-1-1zm-21 2.391a4 4 0 1 1 0 5.218zM31 4v1a1 1 0 0 1-1 1H12a1 1 0 0 1-1-1V4zM6.776 24.2a8.071 8.071 0 0 1 2.48 1.031 1 1 0 0 0 1.241-.139L12.78 22.8l1.42 1.42-2.287 2.28a1 1 0 0 0-.139 1.241 8.071 8.071 0 0 1 1.031 2.48 1 1 0 0 0 .975.779H17v2h-3.22a1 1 0 0 0-.975.776 8.071 8.071 0 0 1-1.031 2.48 1 1 0 0 0 .139 1.241L14.2 39.78l-1.42 1.42-2.28-2.287a1 1 0 0 0-1.241-.139 8.071 8.071 0 0 1-2.48 1.031A1 1 0 0 0 6 40.78V44H4v-7.114A4.874 4.874 0 0 0 5 37a5 5 0 0 0 0-10 4.874 4.874 0 0 0-1 .114V20h2v3.22a1 1 0 0 0 .776.98zM4 29.2a2.926 2.926 0 0 1 1-.2 3 3 0 0 1 0 6 2.926 2.926 0 0 1-1-.2zM38 57a3 3 0 0 1-3 3H7a3 3 0 0 1-3-3V46h3a1 1 0 0 0 1-1v-3.457a9.991 9.991 0 0 0 1.625-.674l2.448 2.448a1 1 0 0 0 1.414 0l2.83-2.83a1 1 0 0 0 0-1.414l-2.448-2.448A9.991 9.991 0 0 0 14.543 35H18a1 1 0 0 0 1-1v-4a1 1 0 0 0-1-1h-3.457a9.991 9.991 0 0 0-.674-1.625l2.448-2.448a1 1 0 0 0 0-1.414l-2.83-2.83a1 1 0 0 0-1.414 0l-2.448 2.448A9.991 9.991 0 0 0 8 22.457V19a1 1 0 0 0-1-1H4V7a3 3 0 0 1 3-3h2v1a3 3 0 0 0 3 3h18a3 3 0 0 0 3-3V4h2a3 3 0 0 1 3 3zm22-22h-5.69a1 1 0 0 0-.951.691 8.944 8.944 0 0 1-.423 1.061 1 1 0 0 0 .2 1.135l4.01 4.013-4.246 4.246-4.013-4.013a1 1 0 0 0-1.135-.2 8.944 8.944 0 0 1-1.061.423 1 1 0 0 0-.691.954V49h-6V37.18a6 6 0 1 0 0-10.36V15h6v5.69a1 1 0 0 0 .691.951 8.944 8.944 0 0 1 1.061.423 1 1 0 0 0 1.135-.2l4.013-4.01 4.246 4.246-4.013 4.013a1 1 0 0 0-.2 1.135 8.944 8.944 0 0 1 .423 1.061 1 1 0 0 0 .954.691H60z"
            data-original="url(#a)"></path>
        <path fill="url(#b)" d="M24 31h2v2h-2z" data-original="url(#b)"></path>
        <path fill="url(#c)" d="M32 31h2v2h-2z" data-original="url(#c)"></path>
        <path fill="url(#d)" d="M21 52a3 3 0 1 0 3 3 3 3 0 0 0-3-3zm0 4a1 1 0 1 1 1-1 1 1 0 0 1-1 1z"
            data-original="url(#d)"></path>
        <path fill="url(#e)" d="M26 54h6v2h-6z" data-original="url(#e)"></path>
        <path fill="url(#f)" d="M10 54h6v2h-6z" data-original="url(#f)"></path>
        <path fill="url(#g)" d="M56 31h2v2h-2z" data-original="url(#g)"></path>
        <path fill="url(#h)" d="M51.9 21.101h2v2h-2z" transform="rotate(-45 52.9 22.113)" data-original="url(#h)">
        </path>
        <path fill="url(#i)" d="M42 17h2v2h-2z" data-original="url(#i)"></path>
        <path fill="url(#e)" d="M28 31h2v2h-2z" data-original="url(#e)"></path>
        <path fill="url(#i)" d="M42 45h2v2h-2z" data-original="url(#i)"></path>
        <path fill="url(#j)" d="M52.6 41.672h1.999v2H52.6z" transform="rotate(-47.8 53.604 42.662)"
            data-original="url(#j)"></path>
    </g>
</svg>