<svg xmlns="http://www.w3.org/2000/svg" version="1.1" xmlns:xlink="http://www.w3.org/1999/xlink"
    xmlns:svgjs="http://svgjs.com/svgjs" width="512" height="512" x="0" y="0" viewBox="0 0 512 512"
    style="enable-background:new 0 0 512 512" xml:space="preserve" class="">
    <g>
        <linearGradient id="e" x1="74.981" x2="437.02" y1="437.019" y2="74.98" gradientUnits="userSpaceOnUse">
            <stop offset="0" stop-color="#230be0"></stop>
            <stop offset="1" stop-color="#006df0"></stop>
        </linearGradient>
        <radialGradient id="f" cx="256.001" cy="256" r="256" gradientUnits="userSpaceOnUse">
            <stop offset="0" stop-color="#230be0"></stop>
            <stop offset="1" stop-color="#006df0" stop-opacity="0"></stop>
        </radialGradient>
        <linearGradient id="a">
            <stop offset="0" stop-color="#006df0"></stop>
            <stop offset=".187" stop-color="#e1adfc"></stop>
            <stop offset=".511" stop-color="#ebc9fd"></stop>
            <stop offset=".932" stop-color="#fcf7ff"></stop>
            <stop offset="1" stop-color="#fff"></stop>
        </linearGradient>
        <linearGradient xlink:href="#a" id="g" x1="76.071" x2="536.247" y1="588.035" y2="127.859"
            gradientUnits="userSpaceOnUse"></linearGradient>
        <linearGradient id="b">
            <stop offset="0" stop-color="#006df0" stop-opacity="0"></stop>
            <stop offset=".142" stop-color="#d99ffb" stop-opacity=".142"></stop>
            <stop offset=".289" stop-color="#cc95f9" stop-opacity=".289"></stop>
            <stop offset=".438" stop-color="#b884f6" stop-opacity=".438"></stop>
            <stop offset=".589" stop-color="#9b6cf2" stop-opacity=".589"></stop>
            <stop offset=".741" stop-color="#754eec" stop-opacity=".741"></stop>
            <stop offset=".892" stop-color="#4829e6" stop-opacity=".892"></stop>
            <stop offset="1" stop-color="#230be0"></stop>
        </linearGradient>
        <linearGradient xlink:href="#b" id="h" x1="256" x2="256" y1="431.47" y2="309.158"
            gradientUnits="userSpaceOnUse"></linearGradient>
        <linearGradient xlink:href="#a" id="i" x1="-33.996" x2="419.958" y1="498.501" y2="44.548"
            gradientUnits="userSpaceOnUse"></linearGradient>
        <linearGradient xlink:href="#a" id="j" x1="34.144" x2="438.625" y1="687.441" y2="282.96"
            gradientUnits="userSpaceOnUse"></linearGradient>
        <linearGradient xlink:href="#a" id="k" x1="-93.787" x2="438.826" y1="684.546" y2="151.933"
            gradientUnits="userSpaceOnUse"></linearGradient>
        <linearGradient xlink:href="#a" id="l" x1="123.228" x2="359.656" y1="648.091" y2="411.663"
            gradientUnits="userSpaceOnUse"></linearGradient>
        <linearGradient xlink:href="#a" id="m" x1="-76.479" x2="366.398" y1="733.328" y2="290.451"
            gradientUnits="userSpaceOnUse"></linearGradient>
        <linearGradient id="c">
            <stop offset="0" stop-color="#230be0"></stop>
            <stop offset="1" stop-color="#f2d5ff"></stop>
        </linearGradient>
        <linearGradient xlink:href="#c" id="n" x1="95.573" x2="822.502" y1="244.954" y2="-481.975"
            gradientUnits="userSpaceOnUse"></linearGradient>
        <linearGradient xlink:href="#c" id="o" x1="124.864" x2="773.789" y1="493.48" y2="-155.446"
            gradientUnits="userSpaceOnUse"></linearGradient>
        <linearGradient xlink:href="#c" id="p" x1="44.082" x2="847.981" y1="448.957" y2="-354.942"
            gradientUnits="userSpaceOnUse"></linearGradient>
        <linearGradient id="d">
            <stop offset="0" stop-color="#c96ff8"></stop>
            <stop offset=".179" stop-color="#ce7bf9"></stop>
            <stop offset=".501" stop-color="#da9afb"></stop>
            <stop offset=".924" stop-color="#eecbfe"></stop>
            <stop offset="1" stop-color="#f2d5ff"></stop>
        </linearGradient>
        <linearGradient xlink:href="#d" id="q" x1="-56.187" x2="420.876" y1="383.804" y2="-93.259"
            gradientUnits="userSpaceOnUse"></linearGradient>
        <linearGradient xlink:href="#d" id="r" x1="8.368" x2="424.01" y1="610.599" y2="194.957"
            gradientUnits="userSpaceOnUse"></linearGradient>
        <linearGradient xlink:href="#d" id="s" x1="84.009" x2="388.655" y1="363.471" y2="58.826"
            gradientUnits="userSpaceOnUse"></linearGradient>
        <linearGradient xlink:href="#d" id="t" x1="91.839" x2="473.289" y1="218.695" y2="-162.755"
            gradientUnits="userSpaceOnUse"></linearGradient>
        <linearGradient xlink:href="#a" id="u" x1="-389.246" x2="312.132" y1="863.785" y2="162.407"
            gradientUnits="userSpaceOnUse"></linearGradient>
        <linearGradient xlink:href="#d" id="v" x1="18.896" x2="435.654" y1="360.934" y2="-55.824"
            gradientUnits="userSpaceOnUse"></linearGradient>
        <linearGradient xlink:href="#c" id="w" x1="55.043" x2="281.721" y1="341.191" y2="114.512"
            gradientUnits="userSpaceOnUse"></linearGradient>
        <linearGradient xlink:href="#c" id="x" x1="-6.762" x2="379.702" y1="448.965" y2="62.502"
            gradientUnits="userSpaceOnUse"></linearGradient>
        <linearGradient xlink:href="#a" id="y" x1="-93.374" x2="255.507" y1="390.992" y2="42.112"
            gradientUnits="userSpaceOnUse"></linearGradient>
        <linearGradient xlink:href="#a" id="z" x1="-147.843" x2="198.976" y1="468.65" y2="121.831"
            gradientUnits="userSpaceOnUse"></linearGradient>
        <linearGradient xlink:href="#c" id="A" x1="69.004" x2="277.175" y1="251.331" y2="43.16"
            gradientUnits="userSpaceOnUse"></linearGradient>
        <linearGradient xlink:href="#a" id="B" x1="-372.32" x2="336.709" y1="876.536" y2="167.507"
            gradientUnits="userSpaceOnUse"></linearGradient>
        <linearGradient xlink:href="#b" id="C" x1="176.651" x2="603.342" y1="298.108" y2="-128.583"
            gradientUnits="userSpaceOnUse"></linearGradient>
        <linearGradient xlink:href="#c" id="D" x1="112.77" x2="330.869" y1="297.927" y2="79.828"
            gradientUnits="userSpaceOnUse"></linearGradient>
        <linearGradient xlink:href="#c" id="E" x1="111.925" x2="329.27" y1="329.329" y2="111.984"
            gradientUnits="userSpaceOnUse"></linearGradient>
        <linearGradient xlink:href="#c" id="F" x1="13.141" x2="364.643" y1="529.66" y2="178.158"
            gradientUnits="userSpaceOnUse"></linearGradient>
        <linearGradient xlink:href="#c" id="G" x1="100.159" x2="365.807" y1="473.285" y2="207.636"
            gradientUnits="userSpaceOnUse"></linearGradient>
        <circle cx="256" cy="256" r="256" fill="url(#e)" data-original="url(#e)"></circle>
        <circle cx="256" cy="256" r="256" fill="url(#f)" data-original="url(#f)"></circle>
        <path fill="url(#g)"
            d="M308.158 388.437a5992.937 5992.937 0 0 0-8.011-24.977c-14.632-10.124-29.359-20.335-44.147-30.585-14.788 10.25-29.515 20.461-44.147 30.585a5708.838 5708.838 0 0 0-8.011 24.977c-3.983 12.489-15.352 20.777-28.312 20.513-.001 0 .168 7.647.17 7.647a3838.617 3838.617 0 0 0 160.601 0c.058-2.549.115-5.098.17-7.647-12.96.265-24.33-8.025-28.313-20.513z"
            data-original="url(#g)"></path>
        <path fill="url(#h)"
            d="M308.158 388.437a5992.937 5992.937 0 0 0-8.011-24.977c-14.632-10.124-29.359-20.335-44.147-30.585-14.788 10.25-29.515 20.461-44.147 30.585a5708.838 5708.838 0 0 0-8.011 24.977c-3.983 12.489-15.352 20.777-28.312 20.513-.001 0 .168 7.647.17 7.647a3838.617 3838.617 0 0 0 160.601 0c.058-2.549.115-5.098.17-7.647-12.96.265-24.33-8.025-28.313-20.513z"
            data-original="url(#h)"></path>
        <path fill="url(#i)"
            d="M170.482 286.576c-30.679 10.067-61.286 19.942-91.745 29.424.191 10 .43 20 .717 30 .241 8.277 7.287 15.198 15.689 15.434a5909.75 5909.75 0 0 0 76.116 1.583c-.404-25.48-.663-50.96-.777-76.441z"
            data-original="url(#i)"></path>
        <path fill="url(#j)"
            d="M372.244 286.429a4935.087 4935.087 0 0 1-1.055 76.073c15.223-.297 30.446-.653 45.669-1.067 8.402-.235 15.448-7.157 15.689-15.434.287-10 .526-20 .717-30-20.243-9.655-40.599-19.542-61.02-29.572z"
            data-original="url(#j)"></path>
        <path fill="url(#k)"
            d="M386.757 347.016c.425-20.226.708-40.451.85-60.677-77.496.485-154.992.541-232.487.17.109 20.339.326 40.678.651 61.017.139 8.421 7.085 15.368 15.488 15.492 66.644.957 133.287.785 199.931-.515 8.401-.17 15.387-7.115 15.567-15.487z"
            data-original="url(#k)"></path>
        <path fill="url(#l)"
            d="M368.988 408.173c-10.043.28-20.087.523-30.13.729-.114 5.097-.233 10.193-.358 15.29 10-.226 20-.493 30-.802 4.14-.13 7.621-3.642 7.767-7.837.145-4.195-3.117-7.495-7.279-7.38z"
            data-original="url(#l)"></path>
        <path fill="url(#m)"
            d="M346.2 416.378c.109-4.215-3.18-7.561-7.342-7.476a4049.194 4049.194 0 0 1-195.846-.729c-4.161-.115-7.424 3.185-7.278 7.381.145 4.194 3.626 7.707 7.767 7.837 65 2.004 130 2.271 195 .802 4.139-.094 7.589-3.596 7.699-7.815z"
            data-original="url(#m)"></path>
        <path fill="url(#n)"
            d="M96.269 118.433c-8.342.305-15.408 7.289-15.735 15.567a3139.645 3139.645 0 0 0-1.798 182c25.542.432 51.085.771 76.627 1.017l15.205-15.152a6771.518 6771.518 0 0 1 1.284-185.496 4464.702 4464.702 0 0 0-75.583 2.064z"
            data-original="url(#n)"></path>
        <path fill="url(#o)"
            d="M415.731 118.433a4486.833 4486.833 0 0 0-45.349-1.393 4937.806 4937.806 0 0 1 1.745 184.603c5.069 5.03 10.124 10.041 15.161 15.034 15.325-.192 30.651-.418 45.976-.677 1.16-60.667.561-121.333-1.798-182-.327-8.277-7.393-15.262-15.735-15.567z"
            data-original="url(#o)"></path>
        <path fill="url(#p)"
            d="M370.381 117.041a4463.283 4463.283 0 0 0-198.53-.672c-8.342.161-15.28 7.144-15.468 15.565a5718.498 5718.498 0 0 0-1.021 185.083c77.308.743 154.616.629 231.925-.339.859-61.352.415-122.703-1.331-184.054-.243-8.372-7.232-15.366-15.575-15.583z"
            data-original="url(#p)"></path>
        <path fill="url(#q)"
            d="M95.704 133.495a3465.096 3465.096 0 0 0-1.872 167.691c10.231.118 20.463.226 30.694.322 30.103-56.007 61.717-113.184 92.537-170.408a5053.89 5053.89 0 0 0-121.359 2.395z"
            data-original="url(#q)"></path>
        <path fill="url(#r)"
            d="M385.956 132.623c-19.425 27.627-39.499 55.731-59.837 84.064 20.608 28.508 41.187 56.865 61.354 84.82 10.231-.096 20.463-.203 30.694-.322.729-55.897.105-111.794-1.872-167.691-10.112-.32-20.225-.611-30.339-.871z"
            data-original="url(#r)"></path>
        <path fill="url(#s)"
            d="M156.384 131.933c75.895 27.472 153.46 57.744 231.172 87.155a4336.498 4336.498 0 0 0-1.599-86.465 5048.978 5048.978 0 0 0-229.573-.69z"
            data-original="url(#s)"></path>
        <path fill="url(#t)"
            d="M172.5 87.83c-10 .229-20 .499-30 .81-8.277.262-15.258 7.295-15.558 15.667a4338.88 4338.88 0 0 0-2.23 91.016 9798.266 9798.266 0 0 1 45.769 30.101c.208-45.865.88-91.729 2.019-137.594z"
            data-original="url(#t)"></path>
        <path fill="url(#u)"
            d="M277.268 95.94c-1.718 35.603-3.564 71.215-5.481 106.832 35.538-1.926 71.056-3.69 106.552-5.241-33.969-33.64-67.953-67.769-101.071-101.591z"
            data-original="url(#u)"></path>
        <path fill="url(#v)"
            d="M232.5 86.951c-20 .129-40 .422-60 .88-8.277.193-15.196 7.207-15.427 15.628a5721.277 5721.277 0 0 0-1.954 122.033c41.65-.2 83.299-.276 124.949-.228-16.104-46.123-32.222-92.31-47.568-138.313z"
            data-original="url(#v)"></path>
        <path fill="url(#w)"
            d="M170.482 225.424a8655.405 8655.405 0 0 1-15.118-30.44c-10.217.098-20.434.211-30.651.339-.496 35.395-.558 70.79-.186 106.185 15.347.144 30.694.262 46.041.356-.173-25.48-.201-50.96-.086-76.44z"
            data-original="url(#w)"></path>
        <path fill="url(#x)"
            d="M155.363 194.983c-.38 35.593-.427 71.186-.142 106.779 25.578.184 51.157.298 76.736.342 15.961-35.832 32.138-71.755 48.054-107.577-41.55-.095-83.099.057-124.648.456z"
            data-original="url(#x)"></path>
        <path fill="url(#y)"
            d="M140.982 141.891c-.292 12.44 5.491 23.373 14.672 30.212a9407.555 9407.555 0 0 0 30.93-30.977 19638.046 19638.046 0 0 1-29.709-30.041c-9.339 7.175-15.603 18.367-15.893 30.806z"
            data-original="url(#y)"></path>
        <path fill="url(#z)"
            d="M179.67 102.969c-8.478.16-16.366 3.182-22.796 8.116a5695.898 5695.898 0 0 0-1.221 61.018c6.315 4.703 14.229 7.46 22.839 7.382 21.142-.186 38.35-17.446 38.492-38.659.128-21.209-16.553-38.264-37.314-37.857z"
            data-original="url(#z)"></path>
        <path fill="url(#A)"
            d="M201.784 140.955c-.128 12.713-10.465 23.091-23.119 23.227-12.652.133-22.746-9.959-22.483-22.588.264-12.627 10.675-23.102 23.19-23.322 12.516-.215 22.537 9.971 22.412 22.683z"
            data-original="url(#A)"></path>
        <path fill="url(#B)"
            d="M378.34 197.531c-5.618-5.562-13.321-9.067-21.777-9.157a9471.81 9471.81 0 0 0-54.62-.424c-8.461-.04-15.341-6.94-15.375-15.426-.08-18.266-.186-36.532-.319-54.798a31.452 31.452 0 0 0-8.98-21.786c-5.478-5.592-12.986-9.065-21.268-9.065-7.833 0-15.667.025-23.5.076-.498 71.718-.68 143.436-.544 215.154 51.839.089 103.678-.11 155.517-.597.288-27.473.316-54.947.082-82.42-.072-8.377-3.599-15.993-9.216-21.557z"
            data-original="url(#B)"></path>
        <path fill="url(#C)"
            d="M378.34 197.531c-5.618-5.562-13.321-9.067-21.777-9.157a9471.81 9471.81 0 0 0-54.62-.424c-8.461-.04-15.341-6.94-15.375-15.426-.08-18.266-.186-36.532-.319-54.798a31.452 31.452 0 0 0-8.98-21.786c-5.478-5.592-12.986-9.065-21.268-9.065 7.98 0 14.212 7.168 13.318 15.293a16773.082 16773.082 0 0 1-8.833 77.805c-2.294 19.713 14.384 36.407 34.072 34.155 25.895-2.96 51.772-5.841 77.625-8.6 8.101-.861 15.302 5.488 15.372 13.56-.071-8.377-3.598-15.993-9.215-21.557z"
            data-original="url(#C)"></path>
        <path fill="url(#D)"
            d="M192.463 240.673c-9.906.015-19.813.033-29.719.055-4.245.007-7.677-3.397-7.661-7.609.017-4.21 3.475-7.644 7.717-7.662a21004 21004 0 0 1 29.701-.111 7.628 7.628 0 0 1 7.662 7.647c-.009 4.236-3.455 7.674-7.7 7.68z"
            data-original="url(#D)"></path>
        <path fill="url(#E)"
            d="M192.463 271.327c-9.906-.015-19.813-.033-29.719-.055-4.245-.01-7.696-3.434-7.701-7.645-.006-4.213 3.437-7.625 7.682-7.627h29.725c4.246-.001 7.687 3.433 7.69 7.669.003 4.235-3.432 7.665-7.677 7.658z"
            data-original="url(#E)"></path>
        <path fill="url(#F)"
            d="M349.256 240.728c-26.303-.058-52.606-.092-78.909-.101-4.245-.001-7.687-3.444-7.688-7.689s3.437-7.687 7.679-7.683c26.287.018 52.574.085 78.861.202 4.242.02 7.7 3.452 7.717 7.662.018 4.21-3.415 7.617-7.66 7.609z"
            data-original="url(#F)"></path>
        <path fill="url(#G)"
            d="M349.256 271.272c-26.303.058-52.606.092-78.909.101A7.687 7.687 0 0 1 270.35 256h78.925c4.246.002 7.688 3.415 7.682 7.627-.005 4.211-3.456 7.636-7.701 7.645z"
            data-original="url(#G)"></path>
    </g>
</svg>